<svg xmlns="http://www.w3.org/2000/svg" width="136.813" height="94.059" viewBox="0 0 136.813 94.059">
  <g id="Group_173" data-name="Group 173" transform="translate(-507.187 -180.58)">
    <g id="Group_60" data-name="Group 60" transform="translate(33.187 19.58)">
      <g id="Group_59" data-name="Group 59" transform="translate(513.141 161)">
        <path id="Path_1" data-name="Path 1" d="M29.1,58.2A29.1,29.1,0,1,1,58.2,29.1,29.1,29.1,0,0,1,29.1,58.2Zm0-54.776A25.678,25.678,0,1,0,54.776,29.1,25.678,25.678,0,0,0,29.1,3.421Z" transform="translate(0 0)" fill="#fff"/>
        <path id="Path_2" data-name="Path 2" d="M12.075,57.157,2.48,12.075l45.082-9.6,9.6,45.082ZM6.54,14.687,14.687,53.1,53.1,44.95,44.95,6.54Z" transform="translate(-0.72 -0.72)" fill="#fff"/>
      </g>
      <g id="Group_58" data-name="Group 58" transform="translate(474 231.551)">
        <path id="Path_3" data-name="Path 3" d="M113.148,23.51a5.224,5.224,0,0,0-1.483.263,1.057,1.057,0,0,0-.625.71,6.9,6.9,0,0,0-.156,1.753v15.9a6.091,6.091,0,0,0,.177,1.753,1.079,1.079,0,0,0,.617.71,4.967,4.967,0,0,0,1.469.263v.632q-1.852-.092-5.33-.092-3.861,0-5.678.092v-.632a5.174,5.174,0,0,0,1.483-.263,1.043,1.043,0,0,0,.625-.71,6.871,6.871,0,0,0,.156-1.753V26.257a6.458,6.458,0,0,0-.17-1.753,1.107,1.107,0,0,0-.625-.71,4.968,4.968,0,0,0-1.469-.263V22.9q1.824.1,5.678.092,3.449,0,5.33-.092Z" transform="translate(-102.14 -22.401)" fill="#fff"/>
        <path id="Path_4" data-name="Path 4" d="M156.766,23.764a1.043,1.043,0,0,0-.625.71,6.835,6.835,0,0,0-.163,1.753v15.9a6.388,6.388,0,0,0,.177,1.753,1.093,1.093,0,0,0,.625.71,4.968,4.968,0,0,0,1.469.263v.632q-1.952-.092-5.678-.092-3.868,0-5.678.092V44.85a6.693,6.693,0,0,0,1.682-.263,1.136,1.136,0,0,0,.71-.71,5.743,5.743,0,0,0,.192-1.753V25.8l-7.686,19.645h-.511l-9.006-20.5v14.28a21.058,21.058,0,0,0,.192,3.4,2.285,2.285,0,0,0,.852,1.512,4.968,4.968,0,0,0,2.186.71v.632c-.873-.064-2.065-.092-3.549-.092a21.144,21.144,0,0,0-2.654.092v-.632a3.088,3.088,0,0,0,1.469-.71,2.52,2.52,0,0,0,.639-1.419,18.839,18.839,0,0,0,.163-2.874V26.248a6.125,6.125,0,0,0-.177-1.753,1.107,1.107,0,0,0-.625-.71,4.968,4.968,0,0,0-1.469-.263v-.632c.639.064,1.526.092,2.654.092q3.832,0,6.608-.092l6.011,13.556,5.238-13.485h2.775q3.7,0,5.678-.092V23.5A5.173,5.173,0,0,0,156.766,23.764Z" transform="translate(-110.024 -22.392)" fill="#fff"/>
        <path id="Path_5" data-name="Path 5" d="M201.4,44.3a1.583,1.583,0,0,0,.972.532v.632q-2.3-.092-5.813-.092-3.641,0-5.365.092v-.632a5.323,5.323,0,0,0,1.725-.305.859.859,0,0,0,.511-.845,4.485,4.485,0,0,0-.383-1.54l-1.881-5.231h-6.451l-.547,1.419a12.647,12.647,0,0,0-1.05,4.152,1.973,1.973,0,0,0,.71,1.788,4.443,4.443,0,0,0,2.172.546v.632q-2.392-.092-4.18-.092a18.938,18.938,0,0,0-2.463.092v-.632a2.506,2.506,0,0,0,1.5-.994,10.647,10.647,0,0,0,1.419-2.747l7.1-18.233c.71.043,1.249.064,1.7.064a16.614,16.614,0,0,0,1.661-.064L200.5,42.829A4.576,4.576,0,0,0,201.4,44.3Zm-10.461-8.034-2.9-7.984-3.066,7.984Z" transform="translate(-124.556 -22.387)" fill="#fff"/>
        <path id="Path_6" data-name="Path 6" d="M237.542,22.767a9.334,9.334,0,0,1,2.683,1.533,1.043,1.043,0,0,0,.639.284c.213,0,.383-.149.511-.461a5.465,5.465,0,0,0,.284-1.419h.71q-.128,2.264-.128,7.984h-.71a14,14,0,0,0-.83-4,5.593,5.593,0,0,0-2.129-2.491,5.531,5.531,0,0,0-1.547-.71,6.175,6.175,0,0,0-1.739-.256,4.727,4.727,0,0,0-3.719,1.611,9.367,9.367,0,0,0-2.016,4.074,22.139,22.139,0,0,0-.589,5.138q0,5.557,1.356,8.3c.908,1.838,2.165,2.754,3.783,2.754a2.839,2.839,0,0,0,1.569-.383,1.846,1.846,0,0,0,.667-1.6V39.942a7.874,7.874,0,0,0-.256-2.349,1.569,1.569,0,0,0-.908-1.022,6.225,6.225,0,0,0-2.058-.334v-.7q2.172.1,6.1.1,3.286,0,4.918-.1v.71a1.867,1.867,0,0,0-.845.248,1.114,1.114,0,0,0-.369.71,11.361,11.361,0,0,0-.092,1.753v6.324h-.639a3.428,3.428,0,0,0-.291-1.242q-.255-.575-.71-.575a5.763,5.763,0,0,0-2.172.71,13.1,13.1,0,0,1-5.394,1.526q-5.94,0-8.978-3t-3.031-8.566a12.066,12.066,0,0,1,1.583-6.224,10.908,10.908,0,0,1,4.386-4.216A13.428,13.428,0,0,1,234,22.2a10.149,10.149,0,0,1,3.542.568Z" transform="translate(-136.818 -22.197)" fill="#fff"/>
        <path id="Path_7" data-name="Path 7" d="M286.065,23.5a3.087,3.087,0,0,0-1.469.71,2.5,2.5,0,0,0-.639,1.419,18.948,18.948,0,0,0-.163,2.881V45.472c-.426,0-.774-.064-1.05-.064a9.317,9.317,0,0,0-1.185.064L267.414,30.057v9.226a21.065,21.065,0,0,0,.192,3.4,2.313,2.313,0,0,0,.845,1.512,4.968,4.968,0,0,0,2.186.71v.632c-.873-.064-2.065-.092-3.549-.092a21.021,21.021,0,0,0-2.647.092V44.9a3.087,3.087,0,0,0,1.469-.71,2.52,2.52,0,0,0,.639-1.419A19.018,19.018,0,0,0,266.7,39.9V26.245a6.457,6.457,0,0,0-.17-1.753,1.107,1.107,0,0,0-.625-.71,4.968,4.968,0,0,0-1.469-.263v-.632c.639.064,1.519.092,2.647.092a28.01,28.01,0,0,0,2.938-.092l13.038,13.769V29.12a21.044,21.044,0,0,0-.192-3.4,2.349,2.349,0,0,0-.844-1.519,5.131,5.131,0,0,0-2.193-.71V22.86c.873.064,2.065.092,3.549.092a21.146,21.146,0,0,0,2.654-.092Z" transform="translate(-149.252 -22.389)" fill="#fff"/>
      </g>
    </g>
  </g>
</svg>
