<svg id="timeline" xmlns="http://www.w3.org/2000/svg" width="24" height="24" viewBox="0 0 24 24">
  <path id="Path_760" data-name="Path 760" d="M17.5,24A6.5,6.5,0,1,1,24,17.5,6.508,6.508,0,0,1,17.5,24Zm0-12A5.5,5.5,0,1,0,23,17.5,5.506,5.506,0,0,0,17.5,12Z" transform="translate(0 0)" fill="#fff"/>
  <path id="Path_761" data-name="Path 761" d="M20,20.5a.5.5,0,0,1-.312-.109l-2.5-2A.5.5,0,0,1,17,18V14.5a.5.5,0,0,1,1,0v3.26l2.312,1.85A.5.5,0,0,1,20,20.5Z" transform="translate(0 0)" fill="#fff"/>
  <path id="Path_762" data-name="Path 762" d="M9.5,21h-8A1.5,1.5,0,0,1,0,19.5V1.5A1.5,1.5,0,0,1,1.5,0h18A1.5,1.5,0,0,1,21,1.5v8a.5.5,0,0,1-1,0v-8a.5.5,0,0,0-.5-.5H1.5a.5.5,0,0,0-.5.5v18a.5.5,0,0,0,.5.5h8a.5.5,0,0,1,0,1Z" fill="#fff"/>
  <path id="Path_763" data-name="Path 763" d="M14.5,9a.5.5,0,0,1-.3-.1L10.5,6.125,6.8,8.9A.5.5,0,0,1,6,8.5V.5A.5.5,0,0,1,6.5,0h8a.5.5,0,0,1,.5.5v8a.5.5,0,0,1-.276.447A.508.508,0,0,1,14.5,9Zm-4-4a.5.5,0,0,1,.3.1L14,7.5V1H7V7.5l3.2-2.4A.5.5,0,0,1,10.5,5Z" transform="translate(0)" fill="#fff"/>
</svg>
